<svg width="79" height="25" viewBox="0 0 79 25" fill="none" xmlns="http://www.w3.org/2000/svg">
<path d="M19.5 12.5H1.5M1.5 12.5L8 6M1.5 12.5L8 19" stroke="white" stroke-width="2" stroke-linecap="round" stroke-linejoin="round"/>
<path d="M31.94 19.1V16.54H35.36C35.9733 16.54 36.4333 16.38 36.74 16.06C37.0467 15.74 37.2 15.2867 37.2 14.7C37.2 14.1133 37.0467 13.6667 36.74 13.36C36.4333 13.04 35.9733 12.88 35.36 12.88H31.94V10.9H35.2C36.2133 10.9 37.1133 11.0267 37.9 11.28C38.6867 11.52 39.3067 11.9133 39.76 12.46C40.2133 13.0067 40.44 13.7467 40.44 14.68V14.96C40.44 15.8267 40.24 16.5733 39.84 17.2C39.44 17.8133 38.8533 18.2867 38.08 18.62C37.3067 18.94 36.3467 19.1 35.2 19.1H31.94ZM29.14 19.1V4.28H32.34V19.1H29.14ZM31.94 12.36V10.4H34.82C35.4467 10.4 35.9 10.24 36.18 9.92C36.46 9.6 36.6 9.17333 36.6 8.64C36.6 8.08 36.46 7.64 36.18 7.32C35.9 7 35.4467 6.84 34.82 6.84H31.94V4.28H34.62C36.3 4.28 37.5867 4.63333 38.48 5.34C39.3867 6.04667 39.84 7.05333 39.84 8.36V8.66C39.84 9.56667 39.6067 10.2933 39.14 10.84C38.6867 11.3867 38.0667 11.78 37.28 12.02C36.5067 12.2467 35.62 12.36 34.62 12.36H31.94ZM49.4277 19V15.76H48.8877V12.24C48.8877 11.68 48.7543 11.26 48.4877 10.98C48.221 10.7 47.7943 10.56 47.2077 10.56C46.9143 10.56 46.5277 10.5667 46.0477 10.58C45.5677 10.5933 45.0743 10.6133 44.5677 10.64C44.061 10.6667 43.601 10.6933 43.1877 10.72V8.02C43.4943 7.99333 43.8543 7.96667 44.2677 7.94C44.681 7.91333 45.1077 7.89333 45.5477 7.88C45.9877 7.86667 46.401 7.86 46.7877 7.86C47.9077 7.86 48.8477 8.02 49.6077 8.34C50.381 8.66 50.9677 9.14667 51.3677 9.8C51.7677 10.44 51.9677 11.2667 51.9677 12.28V19H49.4277ZM45.9277 19.28C45.141 19.28 44.4477 19.14 43.8477 18.86C43.261 18.58 42.801 18.18 42.4677 17.66C42.1343 17.1267 41.9677 16.4933 41.9677 15.76C41.9677 14.96 42.1743 14.3067 42.5877 13.8C43.001 13.28 43.581 12.9 44.3277 12.66C45.0743 12.4067 45.9343 12.28 46.9077 12.28H49.2477V14.06H46.8877C46.3277 14.06 45.8943 14.2 45.5877 14.48C45.2943 14.7467 45.1477 15.1133 45.1477 15.58C45.1477 16.02 45.2943 16.38 45.5877 16.66C45.8943 16.9267 46.3277 17.06 46.8877 17.06C47.2477 17.06 47.5677 17 47.8477 16.88C48.141 16.7467 48.381 16.5267 48.5677 16.22C48.7543 15.9133 48.861 15.4867 48.8877 14.94L49.6477 15.74C49.581 16.5 49.3943 17.14 49.0877 17.66C48.7943 18.18 48.381 18.58 47.8477 18.86C47.3277 19.14 46.6877 19.28 45.9277 19.28ZM59.6027 19.38C58.656 19.38 57.8293 19.2267 57.1227 18.92C56.4293 18.6 55.8493 18.1733 55.3827 17.64C54.916 17.1067 54.5693 16.5067 54.3427 15.84C54.116 15.16 54.0027 14.46 54.0027 13.74V13.36C54.0027 12.6133 54.1227 11.9 54.3627 11.22C54.6027 10.5267 54.956 9.91333 55.4227 9.38C55.8893 8.84667 56.4693 8.42667 57.1627 8.12C57.8693 7.81333 58.676 7.66 59.5827 7.66C60.5693 7.66 61.4427 7.85333 62.2027 8.24C62.9627 8.61333 63.5693 9.14 64.0227 9.82C64.476 10.5 64.7293 11.28 64.7827 12.16H61.6427C61.5893 11.6667 61.3893 11.2533 61.0427 10.92C60.7093 10.5733 60.2227 10.4 59.5827 10.4C59.0493 10.4 58.6027 10.5333 58.2427 10.8C57.896 11.0667 57.636 11.4333 57.4627 11.9C57.2893 12.3667 57.2027 12.92 57.2027 13.56C57.2027 14.1467 57.2827 14.68 57.4427 15.16C57.6027 15.6267 57.856 15.9933 58.2027 16.26C58.5627 16.5133 59.0293 16.64 59.6027 16.64C60.0293 16.64 60.3893 16.5667 60.6827 16.42C60.9893 16.26 61.2293 16.0467 61.4027 15.78C61.5893 15.5 61.7027 15.18 61.7427 14.82H64.8627C64.8227 15.7267 64.5693 16.5267 64.1027 17.22C63.636 17.9 63.016 18.4333 62.2427 18.82C61.4693 19.1933 60.5893 19.38 59.6027 19.38ZM74.6292 19L71.1692 13.88H69.6292L74.0892 8.04H77.4492L73.2492 13.48L73.2892 11.92L78.2292 19H74.6292ZM66.9092 19V4.4H70.1092V19H66.9092Z" fill="white"/>
</svg>
