<svg width="165" height="41" viewBox="0 0 165 41" fill="none" xmlns="http://www.w3.org/2000/svg">
<g clip-path="url(#clip0_126_410)">
<path d="M30.35 5.15469C34.5475 8.07132 37.4229 12.5281 38.35 17.5547C38.8593 20.3367 38.75 23.1968 38.0297 25.9318C37.3095 28.6669 35.9961 31.2099 34.1826 33.3803C32.3692 35.5507 30.1002 37.2953 27.5368 38.4903C24.9733 39.6852 22.1783 40.3013 19.35 40.2947C15.6165 40.2991 11.9645 39.2035 8.84999 37.1447C6.70507 35.7542 4.85823 33.9509 3.41703 31.8397C1.97582 29.7285 0.969045 27.3517 0.455337 24.8477C-0.0583703 22.3437 -0.0687458 19.7624 0.424815 17.2543C0.918376 14.7463 1.90601 12.3614 3.3302 10.2387C4.75439 8.11605 6.58667 6.29793 8.72034 4.89026C10.854 3.48258 13.2464 2.51348 15.7583 2.0394C18.2701 1.56531 20.8512 1.59572 23.3512 2.12884C25.8511 2.66196 28.2201 3.68714 30.32 5.14469L30.35 5.15469ZM11.53 8.63469C8.03317 10.6969 4.93144 13.3652 2.36999 16.5147C0.109993 19.3447 0.109993 22.6347 2.36999 25.2947C4.19648 27.4699 6.25915 29.4353 8.51999 31.1547C11.7049 33.5827 15.2885 35.4371 19.11 36.6347C21.3014 37.4101 23.6056 37.8189 25.93 37.8447C26.9971 37.9147 28.0586 37.6407 28.9585 37.0629C29.8585 36.4852 30.5494 35.6341 30.93 34.6347C32.4239 31.2459 33.3302 27.6276 33.61 23.9347C34.0679 18.9565 33.5204 13.9371 32 9.17469C31.6681 7.97444 31.0344 6.87921 30.1591 5.99342C29.2838 5.10764 28.1962 4.46084 27 4.11469C26.3872 3.92996 25.75 3.83893 25.11 3.84469C24.1719 3.86585 23.2393 3.99334 22.33 4.22469C18.5112 5.08821 14.8618 6.57838 11.53 8.63469Z" fill="white"/>
<path d="M59.85 19.9447L55.85 19.3747C53.85 19.0947 52.95 18.2647 52.95 16.7647C52.95 14.8347 54.46 13.8247 57.3 13.8247C60.14 13.8247 62 15.1247 62.22 17.4047V17.5947H65.65V17.3647C65.41 13.4747 62.23 11.0647 57.38 11.0647C52.53 11.0647 49.56 13.2947 49.56 16.9947C49.56 19.9947 51.46 21.8847 54.91 22.3547L59.32 23.0047C61.59 23.3347 62.6 24.2447 62.6 25.9547C62.6 28.0747 61.18 29.0547 58.15 29.0547C54.49 29.0547 52.58 27.5947 52.32 24.5947V24.3947H49V24.6347C49.09 29.2747 52.28 31.8247 58 31.8247C63.21 31.8247 66 29.7447 66 25.8247C66 22.3847 64.11 20.5747 59.85 19.9447Z" fill="white"/>
<path d="M69.77 21.3947C69.77 15.0247 73.57 11.0647 79.69 11.0647C85.81 11.0647 89.57 15.0647 89.57 21.3947C89.57 27.7247 85.81 31.8047 79.69 31.8047C73.57 31.8047 69.77 27.8147 69.77 21.3947ZM73.32 21.3947C73.32 26.4747 75.32 28.8447 79.69 28.8447C84 28.8847 86 26.5247 86 21.4447C86 16.3647 84 13.9947 79.67 13.9947C75.34 13.9947 73.32 16.3647 73.32 21.4447V21.3947Z" fill="white"/>
<path d="M103.22 19.9447L99.22 19.3747C97.22 19.0947 96.33 18.2647 96.33 16.7647C96.33 14.8347 97.83 13.8247 100.67 13.8247C103.51 13.8247 105.37 15.1247 105.59 17.4047V17.5947H109V17.3647C108.75 13.4747 105.58 11.0647 100.72 11.0647C95.86 11.0647 92.9 13.2947 92.9 16.9947C92.9 19.9947 94.8 21.8847 98.26 22.3547L102.67 23.0047C104.93 23.3347 105.95 24.2447 105.95 25.9547C105.95 28.0747 104.53 29.0547 101.49 29.0547C97.83 29.0547 95.92 27.5947 95.66 24.5947V24.3947H92.4V24.6347C92.49 29.2747 95.68 31.8247 101.4 31.8247C106.62 31.8247 109.4 29.7447 109.4 25.8247C109.38 22.3847 107.48 20.5747 103.22 19.9447Z" fill="white"/>
<path d="M155.93 29.0447C159.16 29.0447 161.12 27.6947 161.75 25.0447V24.8847H165V25.1247C164.79 26.6947 163.52 31.8047 155.86 31.8047C149.8 31.8047 146.18 27.9147 146.18 21.3947C146.18 14.8747 149.89 11.0647 155.86 11.0647C161.43 11.0647 165.04 14.8847 165.04 20.7847C165.049 21.2427 165.022 21.7008 164.96 22.1547V22.3347H149.6C149.86 26.8447 151.93 29.0447 155.93 29.0447ZM161.58 19.6347C161.38 15.7847 159.45 13.8447 155.85 13.8447C152.25 13.8447 150.12 15.7347 149.68 19.6347H161.58Z" fill="white"/>
<path d="M129.85 26.3447C129.842 27.9244 129.918 29.5033 130.08 31.0747V31.3047H126.8V31.1147C126.7 29.9547 126.59 28.8147 126.55 27.6847C125.71 29.4047 123.75 31.8047 119.38 31.8047C115.26 31.8047 113.16 29.5147 113.16 25.9547C113.058 24.6923 113.394 23.4333 114.112 22.3897C114.83 21.346 115.885 20.5815 117.1 20.2247C118.063 19.8788 119.077 19.6996 120.1 19.6947H126.61V17.1547C126.61 14.9047 125.2 13.9147 122.02 13.9147C119.58 13.9147 118.02 14.6347 117.25 16.0847C117.011 16.5749 116.859 17.1027 116.8 17.6447H113.23C113.279 16.5365 113.602 15.4577 114.17 14.5047C115.52 12.3047 118.17 11.0647 121.89 11.0647C126.99 11.0647 129.89 13.2847 129.89 17.1447L129.85 26.3447ZM120 28.9647C120.23 28.9647 120.45 28.9647 120.68 28.9647C122.168 28.8966 123.581 28.2936 124.659 27.2665C125.738 26.2394 126.409 24.8574 126.55 23.3747V22.4347H119.81C119.349 22.4252 118.89 22.5089 118.462 22.6808C118.034 22.8527 117.644 23.1093 117.318 23.4351C116.991 23.761 116.733 24.1494 116.56 24.5772C116.387 25.005 116.302 25.4633 116.31 25.9247C116.32 28.9247 119.43 28.9647 120 28.9647Z" fill="white"/>
<path d="M135.67 11.1347V8.88469C135.686 7.45764 136.264 6.0944 137.279 5.0909C138.293 4.08739 139.663 3.5246 141.09 3.52469H146.09V6.34469H141.44C140.809 6.35234 140.206 6.60493 139.758 7.04907C139.311 7.4932 139.053 8.09408 139.04 8.72469V11.1347H145.04V13.8847H139.04V30.8847H135.74V13.8847C134.74 13.8847 133.65 13.9647 132.33 14.0947H132.07V11.6347C133.269 11.3448 134.496 11.1839 135.73 11.1547L135.67 11.1347Z" fill="white"/>
</g>
<defs>
<clipPath id="clip0_126_410">
<rect width="165" height="40" fill="white" transform="translate(0 0.964691)"/>
</clipPath>
</defs>
</svg>
